<?xml version="1.0" standalone="no"?>
<!DOCTYPE svg PUBLIC "-//W3C//DTD SVG 20010904//EN"
 "http://www.w3.org/TR/2001/REC-SVG-20010904/DTD/svg10.dtd">
<svg version="1.0" xmlns="http://www.w3.org/2000/svg"
 width="700.000000pt" height="700.000000pt" viewBox="0 0 700.000000 700.000000"
 preserveAspectRatio="xMidYMid meet">
<g transform="translate(0.000000,700.000000) scale(0.100000,-0.100000)"
fill="#000000" stroke="none">
<path d="M3653 6210 c-134 -19 -245 -117 -292 -258 -39 -114 -23 -245 60 -512
91 -294 129 -420 219 -735 117 -410 173 -616 168 -621 -3 -2 -229 307 -504
688 -540 748 -594 814 -720 880 -124 65 -229 69 -351 13 -69 -31 -152 -114
-188 -189 -38 -77 -46 -202 -20 -292 24 -84 85 -210 148 -306 44 -69 533 -742
806 -1112 40 -54 67 -95 59 -90 -7 4 -146 125 -308 269 -594 525 -667 588
-777 662 -147 98 -243 136 -343 137 -63 1 -84 -4 -135 -28 -78 -39 -139 -102
-178 -184 -28 -60 -32 -76 -31 -152 1 -195 80 -306 434 -610 193 -166 397
-349 614 -550 98 -91 197 -182 220 -203 l41 -38 -110 57 c-60 32 -198 108
-305 169 -520 298 -598 331 -764 323 -69 -3 -102 -10 -134 -27 -243 -126 -240
-427 6 -652 69 -62 280 -207 432 -296 695 -406 767 -463 1222 -963 375 -413
551 -558 793 -651 337 -131 788 -92 1192 101 600 288 1028 880 1123 1555 6 44
15 244 20 445 10 418 18 471 111 770 78 250 106 350 118 426 32 193 -73 346
-276 399 -68 18 -171 19 -245 4 -290 -62 -516 -367 -644 -868 -19 -75 -36
-140 -37 -144 -3 -11 -114 170 -191 312 -95 177 -225 455 -281 601 -26 69
-111 314 -190 545 -158 467 -197 573 -263 724 -85 195 -184 316 -305 371 -72
32 -121 40 -194 30z m123 -236 c44 -21 98 -83 134 -155 32 -62 134 -334 305
-808 229 -640 299 -810 460 -1131 113 -223 213 -396 270 -465 94 -115 219
-129 300 -33 42 50 64 109 97 262 97 452 237 694 440 762 68 22 183 22 226 0
86 -45 85 -97 -12 -394 -145 -445 -154 -499 -166 -962 -9 -374 -18 -477 -60
-642 -126 -492 -454 -915 -877 -1131 -344 -176 -750 -224 -1048 -126 -222 74
-386 203 -697 552 -357 400 -450 490 -661 640 -132 95 -319 211 -572 357 -273
157 -431 259 -502 324 -56 50 -103 132 -103 179 0 40 28 84 62 98 77 32 201
-19 573 -233 308 -177 643 -354 714 -377 222 -72 354 49 259 240 -43 86 -266
308 -663 659 -397 351 -613 548 -660 601 -77 90 -109 206 -71 264 24 37 75 65
119 65 46 0 114 -33 188 -91 59 -48 969 -842 1114 -974 244 -221 347 -270 454
-215 119 60 129 170 28 320 -24 36 -259 360 -522 720 -264 360 -502 692 -531
737 -147 234 -150 392 -7 455 35 15 50 17 81 8 52 -13 108 -56 164 -121 25
-30 294 -394 598 -809 304 -415 566 -770 584 -789 17 -18 51 -47 75 -62 84
-54 184 -32 229 52 42 77 35 110 -191 899 -113 393 -222 769 -243 835 -69 224
-75 250 -77 320 -1 58 3 77 22 109 27 43 74 76 109 76 13 0 39 -7 58 -16z"/>
<path d="M5343 6180 c-40 -24 -53 -48 -53 -98 0 -33 8 -50 48 -99 211 -254
322 -575 309 -888 -6 -143 -3 -167 30 -200 52 -51 146 -37 180 29 27 51 24
347 -5 493 -51 257 -174 517 -329 701 -70 83 -119 100 -180 62z"/>
<path d="M4688 6124 c-39 -21 -61 -68 -53 -112 5 -26 30 -60 99 -132 113 -117
182 -213 246 -340 85 -169 130 -328 145 -516 8 -101 29 -138 83 -155 33 -9 45
-9 74 5 68 32 80 92 58 276 -28 230 -113 454 -251 660 -66 98 -244 292 -291
316 -34 18 -75 17 -110 -2z"/>
<path d="M1318 2154 c-15 -8 -35 -28 -43 -44 -34 -66 -12 -132 97 -292 189
-276 467 -486 778 -588 109 -36 149 -35 191 6 36 35 45 80 26 127 -18 42 -29
48 -148 87 -305 100 -567 321 -731 619 -31 56 -48 76 -74 87 -42 17 -62 17
-96 -2z"/>
<path d="M864 1943 c-28 -5 -62 -43 -73 -79 -11 -40 10 -116 63 -227 148 -309
396 -561 698 -712 60 -30 121 -55 134 -55 40 0 80 26 98 64 39 82 14 121 -114
185 -150 75 -234 134 -351 251 -142 141 -231 275 -296 450 -14 36 -32 73 -41
84 -17 18 -74 47 -89 45 -4 -1 -18 -4 -29 -6z"/>
</g>
</svg>
