<?xml version="1.0" standalone="no"?>
<!DOCTYPE svg PUBLIC "-//W3C//DTD SVG 20010904//EN"
 "http://www.w3.org/TR/2001/REC-SVG-20010904/DTD/svg10.dtd">
<svg version="1.0" xmlns="http://www.w3.org/2000/svg"
 width="700.000000pt" height="700.000000pt" viewBox="0 0 700.000000 700.000000"
 preserveAspectRatio="xMidYMid meet">
<g transform="translate(0.000000,700.000000) scale(0.100000,-0.100000)"
fill="#000000" stroke="none">
<path d="M5299 6051 c-41 -20 -828 -545 -1094 -729 -343 -237 -860 -636 -933
-720 -67 -76 -79 -132 -39 -170 28 -26 84 -29 127 -7 16 8 91 63 167 123 451
352 814 609 1248 882 188 118 573 378 614 414 48 43 81 98 81 137 0 75 -88
112 -171 70z"/>
<path d="M5580 6042 c-36 -36 -39 -77 -9 -115 11 -15 66 -52 122 -83 141 -79
263 -201 329 -329 66 -129 81 -188 76 -300 -3 -82 -8 -101 -41 -168 -47 -96
-111 -159 -273 -273 -485 -342 -602 -428 -1086 -806 -178 -138 -411 -320 -518
-403 -107 -84 -224 -183 -259 -220 -81 -87 -127 -182 -146 -300 -18 -109 -40
-155 -112 -234 -84 -93 -353 -321 -379 -321 -30 0 -37 12 -74 118 -68 200
-184 431 -311 617 -167 247 -361 440 -606 603 -84 56 -99 73 -85 98 11 21 252
197 348 254 104 64 185 99 311 139 119 37 163 67 163 115 0 48 -24 74 -87 92
-109 32 -220 2 -448 -122 -309 -168 -570 -380 -670 -544 -101 -167 -109 -343
-25 -570 131 -354 336 -667 625 -955 123 -123 223 -196 347 -255 155 -75 264
-75 372 -2 100 68 469 376 589 492 208 200 273 319 292 533 9 94 24 116 117
171 77 45 146 96 598 446 549 425 737 565 980 730 269 182 363 255 450 346 79
83 121 147 152 234 19 56 23 83 22 195 -1 110 -5 143 -28 218 -78 261 -255
478 -474 584 -62 30 -91 37 -154 41 -75 4 -78 4 -108 -26z m-3486 -2353 c86
-32 168 -92 303 -222 213 -207 352 -396 482 -657 101 -202 136 -310 136 -412
0 -67 -3 -80 -23 -100 -124 -125 -595 297 -850 759 -47 87 -110 219 -146 306
-23 56 -46 178 -46 242 0 46 4 60 25 80 29 30 48 31 119 4z"/>
<path d="M5340 5732 c-33 -33 -40 -79 -17 -119 7 -11 50 -54 97 -95 202 -177
298 -322 339 -513 22 -100 34 -115 93 -115 50 0 83 34 104 108 32 109 -1 217
-124 402 -109 165 -321 347 -417 358 -39 4 -48 1 -75 -26z"/>
<path d="M4465 5048 c-49 -18 -98 -52 -325 -224 -254 -192 -286 -230 -281
-330 1 -11 15 -35 32 -52 36 -36 80 -42 129 -17 50 26 503 404 548 456 47 57
56 109 24 149 -21 25 -83 35 -127 18z"/>
<path d="M3266 4299 c-47 -55 -39 -74 96 -220 131 -141 227 -265 354 -455 124
-186 159 -219 208 -196 14 6 32 22 41 36 23 35 8 101 -50 215 -88 176 -192
317 -364 495 -152 155 -231 190 -285 125z"/>
<path d="M1105 3223 c-115 -25 -308 -78 -376 -103 -112 -42 -295 -137 -336
-176 -39 -37 -45 -87 -14 -125 27 -33 86 -30 177 9 121 53 338 120 567 177
120 30 229 61 242 69 48 31 39 113 -16 141 -27 14 -192 20 -244 8z"/>
<path d="M1655 2349 c-68 -33 -255 -230 -344 -362 -43 -63 -51 -117 -22 -146
25 -25 70 -27 109 -7 52 28 341 335 372 396 27 53 25 76 -9 111 -34 34 -52 35
-106 8z"/>
<path d="M2302 1775 c-32 -24 -38 -38 -161 -404 -94 -276 -113 -344 -114 -398
-2 -59 0 -67 26 -89 48 -41 110 -26 141 34 36 71 255 673 261 718 7 55 -8 108
-38 132 -26 22 -89 26 -115 7z"/>
</g>
</svg>
