<?xml version="1.0" standalone="no"?>
<!DOCTYPE svg PUBLIC "-//W3C//DTD SVG 20010904//EN"
 "http://www.w3.org/TR/2001/REC-SVG-20010904/DTD/svg10.dtd">
<svg version="1.0" xmlns="http://www.w3.org/2000/svg"
 width="512.000000pt" height="512.000000pt" viewBox="0 0 512.000000 512.000000"
 preserveAspectRatio="xMidYMid meet">
<metadata>
Created by potrace 1.11, written by Peter Selinger 2001-2013
</metadata>
<g transform="translate(0.000000,512.000000) scale(0.100000,-0.100000)"
fill="#000000" stroke="none">
<path d="M2079 4596 c-2 -2 -60 -6 -129 -10 -309 -16 -516 -58 -560 -113 -17
-22 -20 -41 -20 -137 l0 -111 -90 -63 -90 -63 0 -204 0 -204 38 -35 c20 -20
63 -48 95 -63 41 -20 57 -33 58 -48 0 -11 2 -29 3 -40 2 -11 6 -47 10 -80 4
-33 9 -71 11 -85 2 -14 6 -52 10 -85 3 -33 12 -109 20 -170 8 -60 17 -135 20
-165 3 -30 8 -66 10 -80 2 -14 6 -52 10 -85 3 -33 8 -67 10 -75 2 -8 7 -51 10
-95 4 -44 8 -82 10 -85 1 -3 6 -35 9 -72 4 -37 9 -77 11 -90 2 -13 9 -68 15
-123 6 -55 13 -111 15 -125 2 -14 7 -52 10 -85 4 -33 8 -71 10 -85 2 -14 6
-50 10 -80 3 -30 8 -71 11 -90 2 -19 6 -56 9 -83 3 -26 7 -60 9 -75 4 -25 7
-46 22 -177 3 -27 7 -61 9 -75 2 -14 7 -52 10 -85 3 -33 8 -71 10 -85 2 -14 7
-50 10 -80 4 -30 8 -66 10 -80 2 -14 7 -54 10 -90 4 -36 8 -69 8 -75 2 -8 67
-44 92 -50 54 -14 153 -54 147 -60 -4 -5 -1 -5 5 -1 7 4 30 2 50 -3 21 -6 40
-11 43 -11 3 -1 23 -5 45 -11 22 -5 56 -12 75 -16 19 -3 41 -10 49 -17 12 -9
13 -8 6 3 -5 9 -4 12 2 8 5 -3 32 -9 59 -12 27 -3 67 -7 89 -10 39 -5 285 -8
295 -5 19 7 70 4 70 -5 0 -6 3 -6 8 1 4 6 36 14 72 18 96 10 139 16 179 25 20
4 48 7 63 7 14 -1 25 1 23 4 -6 9 104 32 117 24 7 -4 8 -3 4 4 -5 8 7 14 34
18 22 4 43 11 46 15 3 5 13 9 23 9 28 0 54 25 58 56 3 34 8 73 16 129 7 43 18
134 22 175 4 42 26 223 31 260 2 19 6 56 9 83 3 26 7 60 9 75 3 15 8 52 11 82
4 30 9 69 11 85 2 17 6 53 9 80 3 28 12 100 20 160 22 174 26 207 31 250 2 22
8 76 14 120 11 88 15 114 30 243 6 48 13 104 15 125 3 20 7 54 10 75 2 20 7
55 10 77 2 22 7 63 10 90 3 28 12 100 20 160 8 61 17 137 20 170 4 33 8 67 10
75 2 8 7 42 10 75 3 33 8 69 10 80 2 11 4 30 4 41 1 16 16 29 54 48 29 15 73
46 99 70 l46 42 1 206 0 206 -94 57 c-105 64 -97 48 -97 184 1 72 -1 76 -32
106 -40 37 -141 70 -276 90 -19 3 -44 7 -55 10 -11 2 -58 7 -105 11 -47 3 -96
8 -110 11 -30 5 -1035 14 -1041 9z m941 -140 c41 -3 109 -8 150 -11 41 -3 86
-7 100 -9 14 -2 63 -10 110 -17 91 -13 88 -22 -11 -34 -30 -3 -61 -8 -69 -10
-8 -2 -49 -6 -90 -10 -41 -3 -93 -8 -115 -10 -252 -25 -1094 -25 -1210 1 -11
2 -44 6 -74 9 -94 8 -235 37 -220 45 8 4 40 11 73 15 32 4 68 8 80 10 38 7
138 14 276 21 74 3 136 7 137 8 6 5 793 -2 863 -8z m-1320 -395 c94 -18 157
-27 310 -45 219 -26 857 -26 1070 0 143 17 306 47 385 70 50 14 100 26 112 27
11 1 19 5 16 10 -10 17 21 5 67 -25 54 -35 53 -48 -3 -51 -19 -1 -33 -5 -31
-8 2 -4 -9 -9 -24 -12 -15 -2 -92 -16 -172 -30 -80 -15 -173 -29 -208 -32 -35
-4 -71 -8 -81 -10 -10 -2 -71 -6 -137 -11 -65 -4 -137 -8 -159 -10 -56 -4
-484 -4 -580 0 -113 6 -286 17 -308 22 -10 2 -48 6 -85 10 -36 3 -75 8 -87 10
-11 2 -38 7 -60 10 -61 7 -92 13 -195 36 -52 11 -107 23 -122 25 -38 7 -35 17
13 50 l41 29 67 -22 c36 -13 113 -32 171 -43z m-100 -486 c30 -4 69 -9 85 -12
17 -2 50 -6 75 -8 25 -1 68 -6 95 -9 258 -33 982 -40 1227 -11 30 3 66 7 213
21 28 2 66 7 85 9 19 3 55 7 80 10 25 4 57 8 72 11 21 3 26 1 24 -13 -2 -10
-7 -49 -11 -88 -5 -38 -9 -79 -11 -90 -1 -11 -3 -37 -5 -57 -2 -21 -6 -38 -9
-38 -3 0 -5 -19 -6 -43 0 -23 -4 -64 -8 -92 -4 -27 -9 -72 -12 -100 -2 -27 -8
-79 -14 -115 -9 -61 -11 -82 -25 -205 -3 -27 -8 -61 -11 -75 -2 -14 -7 -52
-10 -85 -4 -55 -11 -100 -14 -100 -1 0 -10 -100 -12 -135 -1 -8 -8 -21 -17
-28 -9 -8 -10 -10 -2 -6 12 6 13 -2 6 -47 -12 -89 -15 -111 -20 -173 -3 -32
-10 -67 -16 -78 -9 -16 -8 -19 2 -13 7 5 10 4 6 -2 -4 -6 -9 -37 -12 -69 -3
-32 -8 -70 -10 -84 -3 -14 -7 -47 -10 -75 -3 -27 -8 -63 -10 -80 -2 -16 -6
-57 -10 -90 -4 -33 -9 -73 -11 -90 -9 -55 -25 -180 -29 -225 -2 -25 -7 -56
-10 -70 -3 -14 -6 -44 -7 -67 -1 -41 -9 -49 -40 -44 -5 0 -8 -3 -8 -8 0 -5
-15 -11 -32 -13 -18 -3 -74 -15 -125 -26 -51 -12 -113 -24 -139 -28 -26 -3
-50 -7 -53 -9 -7 -3 -111 -14 -211 -21 -219 -15 -438 6 -655 61 -135 34 -188
57 -191 80 -2 11 -6 46 -9 77 -3 31 -8 66 -10 77 -2 11 -7 51 -10 88 -4 37 -9
76 -10 85 -2 9 -7 48 -10 85 -4 37 -9 70 -10 73 -2 3 -6 43 -10 90 -4 47 -9
87 -10 90 -2 3 -6 37 -10 75 -3 39 -8 77 -10 85 -3 8 -7 42 -10 75 -3 33 -9
92 -15 130 -5 39 -11 90 -14 115 -11 93 -27 226 -31 260 -5 34 -8 62 -20 165
-3 28 -7 66 -10 85 -2 19 -7 58 -10 85 -3 28 -8 66 -10 85 -3 19 -9 76 -15
125 -6 50 -13 101 -15 115 -2 14 -7 52 -10 85 -3 33 -8 71 -10 85 -4 26 -15
121 -20 178 -3 27 0 32 13 28 9 -2 42 -7 72 -11z"/>
<path d="M1930 4423 c-92 -14 -46 -35 78 -34 53 0 106 2 117 5 11 2 22 5 25 5
2 1 -1 6 -7 12 -11 11 -164 20 -213 12z"/>
<path d="M2017 3216 c-59 -22 -103 -62 -131 -118 -49 -100 -42 -165 16 -156
18 2 25 14 37 62 16 68 68 129 118 139 124 25 206 -42 212 -175 1 -26 36 -41
62 -27 19 10 21 17 16 65 -13 130 -102 216 -226 221 -39 2 -81 -3 -104 -11z"/>
<path d="M2850 3215 c-57 -18 -106 -65 -137 -131 -41 -89 -28 -166 25 -150 15
5 24 21 32 59 15 74 43 113 95 139 47 23 100 22 149 -2 49 -23 71 -58 85 -136
12 -64 46 -84 74 -44 17 25 6 104 -23 159 -53 103 -173 145 -300 106z"/>
<path d="M2325 2670 c-114 -33 -193 -78 -268 -152 -29 -29 -38 -44 -35 -65 5
-46 42 -43 94 8 24 24 45 41 48 38 8 -9 17 -117 17 -204 0 -90 -2 -111 -22
-237 l-11 -67 -23 15 c-29 19 -61 11 -68 -17 -5 -19 25 -65 63 -97 31 -25 157
-80 210 -91 68 -15 217 -15 290 -1 347 65 498 499 258 738 -126 125 -372 184
-553 132z"/>
<path d="M3316 2358 c3 -5 10 -6 15 -3 13 9 11 12 -6 12 -8 0 -12 -4 -9 -9z"/>
<path d="M3227 1359 c7 -7 15 -10 18 -7 3 3 -2 9 -12 12 -14 6 -15 5 -6 -5z"/>
<path d="M3229 1283 c-13 -16 -12 -17 4 -4 16 13 21 21 13 21 -2 0 -10 -8 -17
-17z"/>
<path d="M3874 1126 c1 -8 5 -18 8 -22 4 -3 5 1 4 10 -1 8 -5 18 -8 22 -4 3
-5 -1 -4 -10z"/>
<path d="M3869 1043 c-13 -16 -12 -17 4 -4 16 13 21 21 13 21 -2 0 -10 -8 -17
-17z"/>
<path d="M4275 971 c-3 -5 -2 -12 3 -15 5 -3 9 1 9 9 0 17 -3 19 -12 6z"/>
<path d="M3633 955 c0 -8 4 -12 9 -9 5 3 6 10 3 15 -9 13 -12 11 -12 -6z"/>
<path d="M4230 936 c0 -2 8 -10 18 -17 15 -13 16 -12 3 4 -13 16 -21 21 -21
13z"/>
<path d="M3390 926 c0 -2 7 -7 16 -10 8 -3 12 -2 9 4 -6 10 -25 14 -25 6z"/>
<path d="M3990 836 c7 -7 13 -7 20 0 6 6 3 10 -10 10 -13 0 -16 -4 -10 -10z"/>
<path d="M3199 673 c-13 -16 -12 -17 4 -4 16 13 21 21 13 21 -2 0 -10 -8 -17
-17z"/>
</g>
</svg>
